<svg xmlns="http://www.w3.org/2000/svg" id="Layer_1" width="450" height="450" version="1.1" viewBox="0 0 450 450.00002"><defs id="defs4"><path id="rect1091" d="M-761.624 510.602h648.95v213.94h-648.95z"/><path id="rect79684" d="M-1347.382-139.176h538.55v183.55h-538.55z"/><path id="rect13534" d="M-576.21 537.7h942.76v125.512h-942.76z"/><path id="rect603" d="M-486.355 22.82h359.418v215.366h-359.418z"/><style>.cls-1{fill:#606060}.cls-2{fill:#f84d10}.cls-3{fill:#444}</style></defs><g id="g19071" style="stroke-width:1.06593" transform="matrix(.9411 0 0 .93519 -72.956 2.012)"><ellipse id="path16971-29-8" cx="316.60144" cy="238.44101" rx="239.08012" ry="240.59293" style="fill:#a7a9ac;fill-opacity:1;stroke:none;stroke-width:3.19782"/><ellipse id="path16971-29" cx="315.41458" cy="239.01917" rx="231.23569" ry="233.10504" style="fill:#fff;stroke:none;stroke-width:3.19782"/><ellipse id="path16971-2-5" cx="315.47058" cy="238.44104" rx="225.64174" ry="227.10759" style="fill:#0066b3;fill-opacity:1;stroke:none;stroke-width:3.19781"/><ellipse id="path16971-2" cx="315.91882" cy="238.13673" rx="148.03281" ry="149.01971" style="fill:#a7a9ac;fill-opacity:1;stroke:none;stroke-width:3.19781"/><g id="g16923" style="fill:#fff;stroke:none;stroke-width:1.06593" transform="translate(564.771 -10.085)"><path id="path19" d="m-356.41 129.492 2.478-4.33q.346-.589.3-1.302-.045-.712-.615-1.445l-27.364-35.219q-.57-.733-1.223-.92-.68-.22-1.336-.03l-4.808 1.33-1.838-2.365 17.738-13.782q1.9-1.477 4.401-2.725 2.527-1.27 5.442-1.877 2.94-.629 6.24-.414 3.326.195 6.849 1.678 3.497 1.45 7.165 4.319 3.642 2.834 7.266 7.499 4.634 5.964 6.52 11.552 1.887 5.533 1.475 10.45-.387 4.896-2.837 9.043-2.45 4.148-6.461 7.265l-17.553 13.639zm16.264-15.843q2.692-2.091 3.714-4.809 1.047-2.737.554-6.041-.466-3.325-2.396-7.116-1.955-3.824-5.243-8.055-3.625-4.665-7.343-7.707-3.744-3.076-7.295-4.431-3.55-1.41-6.855-1.086-3.278.303-5.944 2.374l-3.722 2.892 29.462 37.917z" style="font-weight:700;font-size:24px;font-family:&quot;Sitka Heading&quot;;fill:#fff;stroke:none;stroke-width:1.06594"/><path id="path21" d="m-321.499 97.047 2.916-2.365q1.223-.96 1.298-2.699l1.98-43.292 1.492-10.134 5.834-1.372 32.32 45.05q.51.678 1.232 1.18.722.502 1.407.635l3.919.674.849 2.78-21.956 5.165-.85-2.782 5.496-3.35-9.218-12.695-16.476 3.875-.6 14.795 6.656.702.85 2.781-16.3 3.833zm23.349-27.912-8.757-12.175-3.24-4.906-.249.059-.59 20.04z" style="font-weight:700;font-size:24px;font-family:&quot;Sitka Heading&quot;;fill:#fff;stroke:none;stroke-width:1.06594"/><path id="path23" d="m-267.101 84.05 4.532-1.806q.59-.24.985-.802.427-.562.427-1.446V37.568q0-.883-.427-1.445-.394-.562-.985-.763l-4.532-1.806v-2.85h38.124v15.093h-3.12l-2.364-8.31q-.197-.642-.492-1.043-.296-.402-.854-.402h-15.434V55.03h9.293q.657 0 .92-.321.295-.361.492-1.004l2.003-6.502h2.693v20.913h-2.693l-2.003-6.423q-.197-.602-.492-1.003-.262-.442-.92-.442h-9.293v21.315h18.126q.559 0 .887-.401.328-.402.493-1.084l2.265-9.353h3.087v16.177h-40.718z" style="font-weight:700;font-size:24px;font-family:&quot;Sitka Heading&quot;;fill:#fff;stroke:none;stroke-width:1.06594"/><path id="path25" d="M-207.13 95.694q-4.055-2.256-6.729-5.993-2.626-3.757-3.497-8.6-.822-4.864.278-10.58 1.148-5.736 4.592-11.929 3.285-5.906 7.533-9.872 4.267-4 8.901-5.923 4.663-1.907 9.49-1.706 4.826.2 9.279 2.677 2.694 1.498 4.738 2.964 2.044 1.465 3.612 2.852 1.567 1.387 2.763 2.709 1.216 1.285 2.197 2.393l-7.208 12.959-2.666-1.483 1.849-7.596q.129-.631-.061-1.159-.141-.547-.37-1.003-.598-1.129-1.53-2.257-.932-1.127-2.03-2.16-1.068-1.016-2.245-1.904-1.148-.873-2.254-1.488-2.183-1.215-4.865-1.066-2.654.165-5.579 1.819-2.897 1.67-5.895 4.924-2.998 3.254-5.785 8.265-2.688 4.833-4.24 9.36-1.533 4.49-1.768 8.25-.214 3.725.94 6.523 1.183 2.814 3.905 4.328 1.163.646 2.351.98 1.19.332 2.267.463 1.079.131 1.95.1.9-.015 1.456-.08l5.973-10.74q.438-.787.356-1.442-.053-.639-.48-1.205l-3.679-4.202 1.394-2.506 19.17 10.663-1.393 2.506-4.518-.357q-.678-.049-1.305.212-.6.276-1.037 1.063l-3.087 5.549-2.926 5.262q-1.166 2.164-1.857 3.608-1.93-.136-4.208-.513-2.23-.396-4.579-1.047-2.369-.614-4.712-1.542-2.362-.893-4.49-2.075z" style="font-weight:700;font-size:24px;font-family:&quot;Sitka Heading&quot;;fill:#fff;stroke:none;stroke-width:1.06594"/><path id="path27" d="M-166.245 119.159q-3.732-2.835-5.716-6.09-1.932-3.269-2.387-6.598-.405-3.343.519-6.55.948-3.241 3.03-5.981l20.763-27.334q.546-.718.52-1.458 0-.72-.356-1.247l-2.538-4.243 1.76-2.315 17.728 13.467-1.76 2.316-4.767-1.307q-.603-.202-1.322.025-.693.193-1.213.878l-18.46 24.3q-.892 1.175-1.75 2.58-.835 1.373-1.478 2.941-.62 1.536-.874 3.143-.254 1.607.036 3.217.291 1.61 1.254 3.165.963 1.554 2.803 2.952 1.813 1.377 3.622 1.928 1.81.552 3.492.44 1.733-.123 3.293-.738 1.586-.648 2.952-1.616 1.393-.948 2.544-2.131 1.178-1.163 2.07-2.337l18.262-24.04q.545-.717.494-1.425-.025-.687-.33-1.227l-2.336-4.45 1.759-2.316 13.596 10.328-1.76 2.316-4.94-1.078q-.629-.17-1.322.024-.669.161-1.189.846l-19.575 25.768q-2.081 2.74-4.46 4.432-2.353 1.658-4.814 2.464-2.435.825-4.898.857-2.411.02-4.659-.453-2.223-.505-4.175-1.422-1.952-.917-3.418-2.031z" style="font-weight:700;font-size:24px;font-family:&quot;Sitka Heading&quot;;fill:#fff;stroke:none;stroke-width:1.06594"/><path id="path27-7" d="M-45.285 320.902q-1.19 4.695-3.391 7.875-2.23 3.134-5.051 4.874-2.85 1.696-6.06 2.064-3.25.356-6.46-.572l-32.028-9.259q-.841-.243-1.495.072-.646.281-.99.83l-2.885 4.097-2.713-.785 5.653-22.3 2.714.784.555 5.091q.038.659.5 1.26.425.591 1.228.823l28.474 8.232q1.376.397 2.947.673 1.533.264 3.172.269 1.601-.005 3.134-.39 1.534-.384 2.872-1.293 1.338-.91 2.383-2.443t1.631-3.847q.579-2.281.418-4.235-.161-1.954-.87-3.527-.739-1.617-1.855-2.876-1.155-1.27-2.518-2.203-1.355-.968-2.833-1.611-1.469-.678-2.844-1.076l-28.168-8.143q-.841-.243-1.457.083-.607.293-.981.797l-3.144 3.986-2.714-.785 4.336-17.103 2.714.784.823 5.17q.076.67.5 1.26.387.58 1.19.812l30.193 8.728q3.21.928 5.588 2.551 2.34 1.613 3.953 3.663 1.622 2.017 2.543 4.37.892 2.31 1.282 4.654.352 2.333.236 4.568-.115 2.234-.582 4.079z" style="font-weight:700;font-size:24px;font-family:&quot;Sitka Heading&quot;;fill:#fff;stroke:none;stroke-width:1.06594"/><path id="path45" d="M-105.643 411.736q-4.004 3.279-8.603 4.382-4.627 1.073-9.452.071-4.853-1.032-9.776-4.191-4.923-3.16-9.52-8.395-2.994-3.408-5.02-6.914-2.028-3.506-3.11-6.935-1.108-3.459-1.269-6.736-.187-3.309.58-6.28.74-3.002 2.356-5.605 1.642-2.623 4.167-4.69 1.326-1.086 3.201-2.196 1.849-1.14 3.806-2.158 1.982-1.037 3.843-1.815 1.858-.83 3.232-1.262l9.767 11.122-2.346 1.922-6.633-4.209q-.589-.37-1.167-.43-.578-.058-1.074-.025-2.403.21-4.501.916-2.125.675-3.962 2.18-2.168 1.774-2.999 4.372-.833 2.547-.176 5.79.655 3.192 2.796 6.978 2.14 3.786 5.841 8 3.863 4.399 7.594 7.149 3.731 2.75 7.276 3.841 3.546 1.092 6.773.473 3.227-.619 6.058-2.937 1.81-1.483 2.805-3.096.993-1.666 1.49-3.297.494-1.683.6-3.26.13-1.6.192-2.928l1.377-1.127 3.265 3.717q-.067 1.972-.486 4.34-.447 2.336-1.337 4.769-.863 2.411-2.257 4.618-1.342 2.217-3.33 3.846z" style="font-weight:700;font-size:24px;font-family:&quot;Sitka Heading&quot;;fill:#fff;stroke:none;stroke-width:1.06594"/><path id="path15921" d="m-460.82 232.388 1.93 5.336q.257.696.857 1.16.6.502 1.543.502h45.319q.943 0 1.543-.502.6-.464.815-1.16l1.93-5.336h3.043v44.81h-16.035v-3.634l8.79-2.745q.685-.193 1.114-.58.429-.386.429-1.044v-18.132h-20.966v11.29q0 .811.386 1.12.429.348 1.072.542l7.117 2.397v3.093h-22.723v-3.093l7.031-2.397q.772-.232 1.158-.542.386-.309.386-1.12v-11.29h-20.409q-.986 0-1.586.502-.557.503-.814 1.237l-1.93 5.838h-3.044v-26.252z" style="font-weight:700;font-size:24px;font-family:&quot;Sitka Heading&quot;;fill:#fff;stroke:none;stroke-width:1.06593"/><path id="path15923" d="M-456.7 313.14q-1.082-5.762.258-10.799 1.347-5.002 4.723-9.072 3.424-4.045 8.685-7.036 5.267-2.956 12.02-4.662 6.381-1.611 12.162-1.373 5.828.263 10.44 2.315 4.66 2.076 7.8 5.945 3.148 3.904 4.204 9.528 1.153 6.142-.393 11.23-1.499 5.114-5.024 9.076-3.52 3.997-8.724 6.83-5.204 2.831-11.462 4.412-3.706.936-7.487 1.24-3.781.304-7.391-.085-3.568-.4-6.813-1.604-3.245-1.205-5.892-3.355-2.598-2.127-4.44-5.276-1.876-3.104-2.667-7.314zm5.373-.779q.577 3.071 2.775 4.901 2.245 1.855 5.66 2.583 3.455.717 7.915.35 4.465-.333 9.571-1.622 5.847-1.477 10.515-3.487 4.675-1.975 7.782-4.495 3.113-2.485 4.493-5.471 1.428-2.963.787-6.38-.616-3.277-2.944-5.11-2.321-1.8-5.853-2.462-3.483-.638-7.854-.257-4.364.415-9.017 1.59-5.805 1.466-10.48 3.442-4.669 2.01-7.87 4.481-3.155 2.496-4.665 5.48-1.462 3.007-.815 6.457z" style="font-weight:700;font-size:24px;font-family:&quot;Sitka Heading&quot;;fill:#fff;stroke:none;stroke-width:1.06592"/><path id="path15923-5" d="M-425.365 377.134q-3.206-4.91-3.897-10.076-.67-5.136.89-10.188 1.614-5.048 5.329-9.826 3.733-4.748 9.318-8.908 5.279-3.933 10.71-5.926 5.485-1.989 10.531-1.859 5.1.134 9.483 2.505 4.402 2.4 7.531 7.192 3.417 5.233 3.937 10.526.573 5.297-1.166 10.307-1.721 5.04-5.444 9.649-3.723 4.609-8.9 8.466-3.065 2.283-6.441 4.012-3.377 1.729-6.86 2.751-3.45.997-6.909 1.127-3.458.13-6.727-.844-3.214-.97-6.122-3.173-2.922-2.15-5.263-5.735zm4.666-2.778q1.708 2.616 4.44 3.466 2.784.853 6.217.218 3.467-.66 7.445-2.707 3.999-2.017 8.221-5.163 4.836-3.603 8.38-7.248 3.562-3.615 5.467-7.132 1.924-3.487 2.055-6.775.185-3.283-1.715-6.193-1.824-2.793-4.677-3.596-2.833-.773-6.349-.032-3.462.744-7.354 2.77-3.872 2.054-7.72 4.921-4.803 3.578-8.365 7.193-3.543 3.644-5.554 7.153-1.959 3.513-2.211 6.847-.2 3.339 1.72 6.278z" style="font-weight:700;font-size:24px;font-family:&quot;Sitka Heading&quot;;fill:#fff;stroke:none;stroke-width:1.06592"/><path id="path15927" d="m-384.84 408.705 5.947 2.488q.785.38 1.428.221.675-.133 1.123-.824l22.32-34.44-9.534-7.482q-.618-.485-1.147-.427-.476.053-.984.46l-6.798 5.036-3.026-2.374 7.874-12.15 42.492 33.347-7.874 12.15-3.026-2.375 2.114-8.714q.162-.63.04-1.2-.089-.543-.642-.977l-9.663-7.584-22.32 34.441q-.448.691-.31 1.463.171.797.655 1.413l4.075 5.376-1.424 2.198-22.743-17.848z" style="font-weight:700;font-size:24px;font-family:&quot;Sitka Heading&quot;;fill:#fff;stroke:none;stroke-width:1.06593"/><path id="path15929" d="m-343.476 443.655 5.473-.26q.784-.018 1.395-.445.645-.416 1.014-1.275l17.727-41.251q.37-.859.194-1.535-.176-.677-.741-1.078l-3.964-3.251 1.19-2.771 21.746 6.892q5.436 1.724 8.453 3.833 3.051 2.12 4.33 4.477 1.297 2.317 1.11 4.741-.17 2.385-1.177 4.727-1.107 2.575-2.832 4.512-1.692 1.947-3.831 3.22-2.09 1.244-4.609 1.864-2.503.582-5.3.493l-.068.156q3.028 1.182 5.122 2.998 2.145 1.789 3.236 4.041 1.125 2.264 1.144 4.93.02 2.667-1.221 5.555-1.342 3.122-3.202 5.282-1.844 2.12-4 3.432-2.14 1.273-4.592 1.826-2.418.564-4.993.59-2.524-.002-5.12-.47-2.545-.496-5.007-1.276l-22.668-7.186zm31.122-21.618q2.667.845 4.73.834 2.099 0 3.679-.785 1.631-.813 2.798-2.261 1.217-1.477 2.106-3.545 2.33-5.425 1.251-8.517-1.08-3.091-5.49-4.49l-3.625-1.148-8.184 19.045zm-7.448 26.462q4.48 1.42 7.674-.14 3.195-1.558 5.41-6.71 1.29-3.005 1.564-5.269.308-2.252-.404-3.941-.677-1.678-2.409-2.892-1.731-1.214-4.467-2.081l-4.718-1.496-8.838 20.567z" style="font-weight:700;font-size:24px;font-family:&quot;Sitka Heading&quot;;fill:#fff;stroke:none;stroke-width:1.06593"/><path id="path15929-7" d="m-41.578 284.736-1.216-5.308q-.156-.765-.656-1.277-.497-.549-1.348-.738l-40.92-9.095q-.851-.19-1.439.118-.588.307-.854.942l-2.267 4.533-2.749-.61 2.423-22.68q.606-5.67 1.997-9.047 1.395-3.414 3.323-5.139 1.89-1.734 4.141-2.036 2.213-.312 4.536.205 2.555.568 4.635 1.87 2.084 1.266 3.631 3.107 1.513 1.796 2.53 4.14.98 2.335 1.398 5.093l.155.034q.54-3.202 1.829-5.617 1.254-2.46 3.12-3.98 1.87-1.555 4.307-2.108 2.438-.554 5.302.083 3.097.688 5.406 2.078 2.27 1.38 3.856 3.23 1.547 1.84 2.491 4.131.948 2.255 1.433 4.772.449 2.473.484 5.109 0 2.592-.273 5.16l-2.526 23.641zm-25.345-26.15q.297-2.78-.082-4.8-.375-2.054-1.375-3.445-1.036-1.435-2.57-2.287-1.569-.896-3.62-1.352-5.382-1.196-8.018.481-2.636 1.677-3.128 6.277l-.403 3.78 18.891 4.2zm25.548 1.992q.499-4.671-1.499-7.488-1.997-2.817-7.108-3.953-2.98-.662-5.1-.477-2.117.15-3.536 1.186-1.414 1-2.216 2.939-.802 1.94-1.106 4.792l-.526 4.92 20.401 4.535z" style="font-weight:700;font-size:24px;font-family:&quot;Sitka Heading&quot;;fill:#fff;stroke:none;stroke-width:1.06593"/><path id="path15931" d="m-292.735 459.477 3.658-1.617q1.524-.647 2.134-2.304l15.28-41.232 4.611-9.418h6.287l18.672 50.69q.305.768.877 1.415.571.647 1.22.93l3.734 1.536v2.87h-23.664v-2.87l6.554-1.981-5.373-14.31h-17.757l-5.145 14.108 6.478 2.183v2.87h-17.566zm32.047-21.586-5.068-13.704-1.753-5.457h-.267l-6.745 19.16z" style="font-weight:700;font-size:24px;font-family:&quot;Sitka Heading&quot;;fill:#fff;stroke:none;stroke-width:1.06593"/><path id="path15933" d="m-234.381 458.191 4.616-2.464q.637-.331.982-.943.345-.612.223-1.48l-5.9-41.694q-.123-.867-.66-1.355-.5-.492-1.163-.6l-5.12-1.086-.396-2.8 23.598-3.34.396 2.801-4.722 2.48q-.637.33-1.017.948-.38.617-.263 1.445l6.117 43.232 16.896-2.39q.317-.046.536-.278.22-.232.356-.533.173-.306.234-.636.091-.375.117-.7l1.175-11.272 3.28-.464 2.557 18.066-41.446 5.864z" style="font-weight:700;font-size:24px;font-family:&quot;Sitka Heading&quot;;fill:#fff;stroke:none;stroke-width:1.06593"/><path id="path15933-1" d="m-188.64 449.639 4.112-3.237q.569-.438.8-1.101.233-.663-.04-1.496l-13.134-40.008q-.273-.833-.887-1.218-.58-.397-1.252-.386l-5.23-.17-.882-2.688 22.644-7.433.882 2.687-4.213 3.27q-.569.439-.835 1.113-.266.674-.005 1.47l13.618 41.484 16.213-5.323q.305-.1.48-.367t.257-.587q.116-.332.118-.668.023-.385-.008-.71l-.823-11.302 3.148-1.034 5.69 17.336-39.77 13.055z" style="font-weight:700;font-size:24px;font-family:&quot;Sitka Heading&quot;;fill:#fff;stroke:none;stroke-width:1.06593"/><path id="path15933-1-3" d="m-85.678 382.077 1.424-5.035q.202-.689 0-1.362-.202-.673-.913-1.186l-34.144-24.644q-.71-.513-1.434-.464-.702.02-1.239.424l-4.33 2.937-2.294-1.655 13.948-19.325 2.293 1.655-1.486 5.122q-.202.69-.02 1.391.18.702.859 1.192l35.404 25.553 9.986-13.837q.188-.26.173-.578-.016-.32-.138-.627-.1-.337-.297-.61-.207-.325-.424-.57l-7.31-8.659 1.94-2.686 14.794 10.678-24.498 33.942z" style="font-weight:700;font-size:24px;font-family:&quot;Sitka Heading&quot;;fill:#fff;stroke:none;stroke-width:1.06593"/><path id="path16782" d="m-401.094 241.354-27.996-28.21-34.774 19.244 18.179-35.343-29.049-27.125 39.23 6.367 16.822-36.008 6.067 39.278 39.445 4.87-35.481 17.908z" style="fill:#fff;stroke:none;stroke-width:5.01572" transform="matrix(.63764 0 0 .63747 -153.793 67.98)"/><path id="path16782-2" d="m-401.094 241.354-27.996-28.21-34.774 19.244 18.179-35.343-29.049-27.125 39.23 6.367 16.822-36.008 6.067 39.278 39.445 4.87-35.481 17.908z" style="fill:#fff;stroke:none;stroke-width:5.01572" transform="matrix(-.63764 0 0 .63747 -343.84 68.354)"/></g><ellipse id="path16971" cx="316.2449" cy="237.32809" rx="140.72104" ry="139.81697" style="fill:#fff;stroke:none;stroke-width:3.19781"/><g id="g78843" style="stroke-width:1.67602" transform="matrix(.64057 0 0 .63145 153.222 98.756)"><path id="path138" d="M507.42 743.65c92.17-90.16 199.7-154.65 180.44-394.34C619.48 334.76 554.75 297 507.42 297c-47.33 0-112.07 37.76-180.42 52.31C307.71 589 415.25 653.49 507.42 743.65Z" style="stroke-width:1.67602;fill:#a7a9ac" transform="translate(-250 -256.35)"/><path id="path140" d="M418.83 335.25c-25.13 9.32-51.09 18.74-78.24 25.41-1 14.86-1.59 29.19-1.59 42.66 0 164.27 70.41 229.49 144.56 298.18l23.86 22.5 23.86-22.51c74.14-68.69 144.56-133.91 144.56-298.18 0-13.47-.61-27.8-1.6-42.66-27.14-6.65-53.1-16.08-78.24-25.4-33.23-12.31-64.62-23.94-88.58-23.94-23.96 0-55.35 11.63-88.59 23.94z" style="stroke-width:1.67602;fill:#fff" transform="translate(-250 -256.35)"/><path id="path142" d="M421.32 342c-22.69 8.4-47.94 17.58-73.91 24.36-.75 12.68-1.25 25-1.25 36.64 0 161.52 69.29 225.71 142.26 293.3l19 17.92 19-17.92c73-67.59 142.25-131.78 142.25-293.3 0-11.63-.5-24-1.24-36.64-26-6.78-51.22-16-73.91-24.36-32.61-12.09-63.42-23.51-86.1-23.51-22.68 0-53.49 11.38-86.1 23.51z" style="stroke-width:1.67602;fill:#0066b3" transform="translate(-250 -256.35)"/><path id="path144" d="M685.24 387.68c-39.64 0-69.73 32.38-69.9 32.56 44.36-63.6 114.82-2 123.13-163.89-40.4 82.74-56.66 70.4-83.87 90.44 0 0 16.55-24.24 1.12-53.7-9.41 49.9-48.56 50.16-57.17 83-1.57 4.56-3.21 11.87-4.87 22.77 0-21.89-35.29-60.3-93.35-60.3a129.39 129.39 0 0 0-47.79 9.38s-.45-26.8-27.25-42.88c9.1 43.24-18.69 59.77-34.5 97.75l.3-3.68c6.34-57.61-47.13-46.57-58.34-106-15.43 29.46 1.12 53.7 1.12 53.7-27.21-20-43.48-7.7-83.87-90.44 8 155.34 73.17 104.9 117.62 156.74a91.72 91.72 0 0 1 13 43.82c0 101.39 78.61 82.63 113 193.4 0 0 8.48-17 8.48-34.84 0-18.31-8.93-36.63-8.93-36.63s25.91 14.74 51.81 14.74c36.18 0 63-21.44 63-21.44s-30.15 2-54.94-4.91C673.62 539.09 601 387.49 750 406c0 0-21.89-18.32-64.76-18.32zM523.55 509.17c-33.73 0-64.31-26-64.31-60.3 0-21.88 18.76-44.66 50.91-44.66 25.46 0 38.42 21 38.42 35.28 0 21.89-18.76 37.07-35.74 37.07-16.52 0-33.05-12.06-33.05-12.06s8.49 39.75 50 39.75c14.73 0 33.94-9.82 33.94-9.82s-11.58 14.74-40.17 14.74z" style="stroke-width:1.67602" transform="translate(-250 -256.35)"/><path id="path146" d="M514.55 483.26c24.78 0 40.9-22 40.9-41.29 0-26.75-18.09-45.62-46.41-45.62-19.66 0-35.19 11.6-35.19 11.6 10-15.53 25.36-25.36 25.36-25.36S441 398.31 441 456.13c0 48.76 47.19 84.15 75.11 84.15a24.78 24.78 0 0 0 10.23-2s-52.31-8.26-67.64-55.85c0 0 26 35.79 64.88 35.79 56.63 0 64.15-49.11 91.63-85.68 16.3-21.7 40.28-39 77.47-39a59.29 59.29 0 0 1 27.13 6.29c-73.53 0-79.79 53.82-101.52 98.38-17.69 36.26-46.73 63.64-88.41 63.64a26.8 26.8 0 0 1-13.37-3.54c23.2 23.2 66.85 18.09 66.85 18.09a58.24 58.24 0 0 1-30.28 8.26c-53.48 0-79.44-27.53-79.44-27.53s24 28.32 19.66 74.33c-21.62-88.49-105.78-83-105.78-177 0-62.14 56.92-102.27 46-134.5 13.76 8.65 10.62 41.69 10.62 41.69s29.1-14.95 54.27-14.95c48 0 92.41 33.82 92.41 83.77 0 33-27.53 66.06-57 66.06-30.28 0-44.44-21.23-44.44-21.23s13.76 7.96 25.17 7.96zM255.87 284.52c31.85 126 84 64.41 126.82 138.49 0 0-5.92-54.74-60.57-76.22-49.19-19.33-66.25-62.27-66.25-62.27zM332.64 311c-5.64 45.75 39.53 44.32 49.77 79 0 0 5.58-28.74-24.74-44.65-16.49-8.63-25.03-34.35-25.03-34.35Zm333.7 35.83C611.69 368.27 605.77 423 605.77 423c42.8-74.08 95-12.52 126.83-138.49 0 .01-17.06 42.95-66.26 62.28zm-35.54-1.42C600.48 361.28 606.06 390 606.06 390c10.23-34.7 55.43-33.27 49.76-79.06 0 .06-8.53 25.78-25.02 34.43z" style="stroke-width:1.67602;fill:#f5821f" transform="translate(-250 -256.35)"/></g></g></svg>